<svg width="24" height="24" fill="none" xmlns="http://www.w3.org/2000/svg"><g clip-path="url(#a)" fill="#fff"><path d="M12 15a3 3 0 1 0 0-6 3 3 0 0 0 0 6Z"/><path d="M16.125 2.625h-8.25a5.25 5.25 0 0 0-5.25 5.25v8.25a5.25 5.25 0 0 0 5.25 5.25h8.25a5.25 5.25 0 0 0 5.25-5.25v-8.25a5.25 5.25 0 0 0-5.25-5.25ZM12 16.5a4.5 4.5 0 1 1 0-9 4.5 4.5 0 0 1 0 9Zm4.875-8.25a1.125 1.125 0 1 1 0-2.25 1.125 1.125 0 0 1 0 2.25Z"/></g><defs><clipPath id="a"><path fill="#fff" d="M0 0h24v24H0z"/></clipPath></defs></svg>