<svg width="24" height="24" fill="none" xmlns="http://www.w3.org/2000/svg"><path d="M23.823 8.704v-.012c-.119-1.548-.345-2.283-.345-2.283l-.003.006c-.015-.057-.028-.116-.046-.171a.075.075 0 0 1-.002-.011h-.002a3.244 3.244 0 0 0-2.602-2.184v-.003c-8.518-.838-17.318-.027-17.318-.027v.01a3.235 3.235 0 0 0-2.79 2.077l-.003-.001-.023.07a3.213 3.213 0 0 0-.126.457C.26 7.833-.35 11.076.345 15.882H.342l.182 1.144c.012.128.033.253.06.377l.009.058.003-.005c.012.05.021.1.035.15l.003.02h.002a3.236 3.236 0 0 0 2.945 2.311v.007s6.918.876 16.933 0l.002-.004c.458-.024.89-.14 1.277-.336.012-.006.022-.007.034-.013.987-.472 1.406-1.331 1.549-1.705l.025-.07.038-.115h-.003c.005-.022.012-.037.018-.063l.034-.162c.026-.108.05-.216.066-.327.259-1.38.302-2.605.302-2.605h-.004c.207-2.39.121-4.4-.03-5.84ZM9.693 15.64V8.48l6.244 3.58-6.244 3.58Z" fill="#fff"/></svg>