<svg width="32" height="32" fill="none" xmlns="http://www.w3.org/2000/svg"><path d="M23.5 28.75a1.5 1.5 0 0 0 1.5-1.5c0-1.5-1.5-3.5-1.5-3.5s-1.5 2-1.5 3.5a1.5 1.5 0 0 0 1.5 1.5Zm4-5.75a1.5 1.5 0 0 0 1.5-1.5c0-1.5-1.5-3.5-1.5-3.5S26 20 26 21.5a1.5 1.5 0 0 0 1.5 1.5Z" fill="url(#a)"/><path d="M15.5 8.225a.75.75 0 0 0 0 1.06l4.058 4.067a8.73 8.73 0 0 1 2.562 6.276 8.75 8.75 0 0 0 8.662-8.663A8.73 8.73 0 0 1 24.5 8.402l-4.06-4.064a.75.75 0 0 0-1.06 0L15.5 8.225Z" fill="url(#b)"/><path d="M30.782 10.965a8.75 8.75 0 0 1-8.662 8.662 8.725 8.725 0 0 0-2.563-6.275L18 11.782l2.413-2.412a2 2 0 0 0 0-2.828L18.8 4.93l.592-.59a.75.75 0 0 1 1.06 0L24.5 8.402a8.725 8.725 0 0 0 6.282 2.563Z" fill="url(#c)"/><path d="M30.782 10.965a8.75 8.75 0 0 1-8.662 8.663 8.911 8.911 0 0 0-.332-2.486 8.733 8.733 0 0 0 6.5-6.5 8.81 8.81 0 0 0 2.494.323Z" fill="url(#d)"/><path d="m22.093 18.945-.026-.5a7.75 7.75 0 0 0 7.53-7.535l.5.025a8.25 8.25 0 0 1-8 8l-.005.01Z" fill="url(#e)"/><path d="M29.782 14.94a8.75 8.75 0 0 1-7.662 4.688 8.73 8.73 0 0 0-.085-1.303S22.5 17.25 24.25 17c2-.285 2.365-.365 3.25-1.25 1.25-1.25 2.282-.81 2.282-.81Z" fill="url(#f)"/><path d="m21.5 4.69.795-.795a1.875 1.875 0 1 1 2.652 2.653l-.794.795" fill="url(#g)"/><path d="M25.5 5.22a1.86 1.86 0 0 1-.55 1.325l-.795.798-1-1 .795-.798a1.859 1.859 0 0 0 .4-2.045c.223.094.426.231.598.402A1.86 1.86 0 0 1 25.5 5.22Z" fill="url(#h)"/><path d="M18.378 13.117 4.795 26.697a1.874 1.874 0 0 1-3.202-1.326 1.875 1.875 0 0 1 .55-1.326l13.5-13.5 2.735 2.572Z" fill="url(#i)"/><path d="m18.378 13.117-2.74-2.565-.895.898 2.65 2.652.985-.985Z" fill="url(#j)"/><path d="M3.67 25.573A1.872 1.872 0 0 1 1.708 26a1.873 1.873 0 0 0 3.087.69l12.597-12.588-1.125-1.125L3.67 25.573Z" fill="url(#k)"/><path d="m17.215 12.03-.948.947 1.125 1.125.986-.985-1.163-1.087Z" fill="url(#l)"/><path d="M23.5 23a.75.75 0 0 0-.6.3c-.17.225-1.65 2.25-1.65 3.95a2.25 2.25 0 0 0 4.5 0c0-1.7-1.48-3.725-1.65-3.95a.75.75 0 0 0-.6-.3Zm0 5a.75.75 0 0 1-.75-.75c0-.633.375-1.46.75-2.117.372.657.75 1.5.75 2.117a.75.75 0 0 1-.75.75Z" fill="url(#m)"/><defs><linearGradient id="a" x1="25.5" y1="18" x2="25.5" y2="28.75" gradientUnits="userSpaceOnUse"><stop stop-color="#168EE0"/><stop offset="1" stop-color="#005F9F"/></linearGradient><linearGradient id="b" x1="23.032" y1="4.118" x2="23.032" y2="19.628" gradientUnits="userSpaceOnUse"><stop stop-color="#168EE0"/><stop offset="1" stop-color="#005F9F"/></linearGradient><linearGradient id="c" x1="24.391" y1="4.121" x2="24.391" y2="19.627" gradientUnits="userSpaceOnUse"><stop stop-color="#168EE0"/><stop offset="1" stop-color="#005F9F"/></linearGradient><linearGradient id="d" x1="26.285" y1="10.643" x2="26.285" y2="19.628" gradientUnits="userSpaceOnUse"><stop stop-color="#168EE0"/><stop offset="1" stop-color="#005F9F"/></linearGradient><linearGradient id="e" x1="26.082" y1="10.91" x2="26.082" y2="18.945" gradientUnits="userSpaceOnUse"><stop stop-color="#168EE0"/><stop offset="1" stop-color="#005F9F"/></linearGradient><linearGradient id="f" x1="25.909" y1="14.865" x2="25.909" y2="19.628" gradientUnits="userSpaceOnUse"><stop stop-color="#168EE0"/><stop offset="1" stop-color="#005F9F"/></linearGradient><linearGradient id="g" x1="23.498" y1="3.345" x2="23.498" y2="7.343" gradientUnits="userSpaceOnUse"><stop stop-color="#168EE0"/><stop offset="1" stop-color="#005F9F"/></linearGradient><linearGradient id="h" x1="24.328" y1="3.5" x2="24.328" y2="7.343" gradientUnits="userSpaceOnUse"><stop stop-color="#168EE0"/><stop offset="1" stop-color="#005F9F"/></linearGradient><linearGradient id="i" x1="9.985" y1="10.545" x2="9.985" y2="27.247" gradientUnits="userSpaceOnUse"><stop stop-color="#168EE0"/><stop offset="1" stop-color="#005F9F"/></linearGradient><linearGradient id="j" x1="16.56" y1="10.553" x2="16.56" y2="14.102" gradientUnits="userSpaceOnUse"><stop stop-color="#168EE0"/><stop offset="1" stop-color="#005F9F"/></linearGradient><linearGradient id="k" x1="9.55" y1="12.977" x2="9.55" y2="27.24" gradientUnits="userSpaceOnUse"><stop stop-color="#168EE0"/><stop offset="1" stop-color="#005F9F"/></linearGradient><linearGradient id="l" x1="17.323" y1="12.03" x2="17.323" y2="14.102" gradientUnits="userSpaceOnUse"><stop stop-color="#168EE0"/><stop offset="1" stop-color="#005F9F"/></linearGradient><linearGradient id="m" x1="23.5" y1="23" x2="23.5" y2="29.5" gradientUnits="userSpaceOnUse"><stop stop-color="#168EE0"/><stop offset="1" stop-color="#005F9F"/></linearGradient></defs></svg>