<svg width="14" height="14" viewBox="0 0 14 14" fill="none" xmlns="http://www.w3.org/2000/svg">
<path d="M11.375 11.8125C10.6312 11.8125 10.0625 11.2438 10.0625 10.5C10.0625 9.75625 10.6312 9.1875 11.375 9.1875C12.1188 9.1875 12.6875 9.75625 12.6875 10.5C12.6875 11.2438 12.1188 11.8125 11.375 11.8125Z" fill="#A3A3A3"/>
<path d="M4.375 11.8125C3.63125 11.8125 3.0625 11.2438 3.0625 10.5C3.0625 9.75625 3.63125 9.1875 4.375 9.1875C5.11875 9.1875 5.6875 9.75625 5.6875 10.5C5.6875 11.2438 5.11875 11.8125 4.375 11.8125Z" fill="#A3A3A3"/>
<path d="M13.9125 7.6125L12.1625 5.425C12.075 5.29375 11.9438 5.25 11.8125 5.25H9.625V3.9375C9.625 3.675 9.45 3.5 9.1875 3.5H2.1875C1.925 3.5 1.75 3.675 1.75 3.9375V4.375H2.1875C2.45 4.375 2.625 4.55 2.625 4.8125C2.625 5.075 2.45 5.25 2.1875 5.25H1.75H1.3125C1.05 5.25 0.875 5.425 0.875 5.6875C0.875 5.95 1.05 6.125 1.3125 6.125H1.75H2.625C2.8875 6.125 3.0625 6.3 3.0625 6.5625C3.0625 6.825 2.8875 7 2.625 7H1.75H0.4375C0.175 7 0 7.175 0 7.4375C0 7.7 0.175 7.875 0.4375 7.875H1.75V10.5C1.75 10.7625 1.925 10.9375 2.1875 10.9375H2.23125C2.1875 10.8063 2.1875 10.6312 2.1875 10.5C2.1875 9.275 3.15 8.3125 4.375 8.3125C5.6 8.3125 6.5625 9.275 6.5625 10.5C6.5625 10.6312 6.5625 10.8063 6.51875 10.9375H9.1875H9.23125C9.1875 10.8063 9.1875 10.6312 9.1875 10.5C9.1875 9.275 10.15 8.3125 11.375 8.3125C12.6 8.3125 13.5625 9.275 13.5625 10.5C13.5625 10.6312 13.5625 10.8063 13.5188 10.9375H13.5625C13.825 10.9375 14 10.7625 14 10.5V7.875C14 7.7875 13.9562 7.7 13.9125 7.6125Z" fill="#A3A3A3"/>
</svg>
