<svg width="241" height="33" fill="none" xmlns="http://www.w3.org/2000/svg"><path d="M15.938.96c.208 0 .351.053.43.157a.71.71 0 0 1 .234.313c.26-.026.52.026.78.156.287.104.456.208.509.312.208.026.338.079.39.157a.38.38 0 0 0 .235.156l.43-.04c.103.105.299.21.585.313.313.105.495.222.547.352-.052.13-.078.273-.078.43.026.13.04.286.04.468-.08.391-.21.743-.392 1.055-.156.313-.299.612-.43.899-.077.13-.142.273-.195.43-.026.155-.065.299-.117.429l-.156.312c-.026.079-.065.17-.117.274 0 .13-.026.273-.078.43l-.157.39c0 .156-.013.274-.039.352a.346.346 0 0 0-.039.156 29.023 29.023 0 0 0-1.172 3.36l-.859 3.124c-.13.313-.26.703-.39 1.172s-.3 1.029-.508 1.68c-.183.625-.391 1.302-.625 2.031a61.866 61.866 0 0 1-.625 1.992c-.183.6-.352 1.12-.508 1.563a9.42 9.42 0 0 1-.235.703 9.611 9.611 0 0 1-.351 1.367c-.156.443-.287.912-.39 1.406-.131.157-.21.339-.235.547a1.542 1.542 0 0 1-.195.547c-.209-.026-.378.026-.508.156-.026.209-.013.404.039.586.078.183.117.378.117.586-.104.287-.234.469-.39.547a.597.597 0 0 0-.313.39c-.182-.051-.326-.025-.43.079-.078.104-.17.156-.273.156-.313-.078-.495-.026-.547.156-.156-.052-.26-.026-.313.078a.443.443 0 0 1-.156.157.788.788 0 0 0-.508.156.882.882 0 0 1-.39.156A433.19 433.19 0 0 1 8.242 31a2.539 2.539 0 0 1-.273-.234 37.4 37.4 0 0 1-.43-1.29l-.39-1.328a3.866 3.866 0 0 0-.196-.585 3.867 3.867 0 0 1-.195-.586 1.68 1.68 0 0 1-.04-.313c0-.104-.012-.208-.038-.312l-.157-.391-.156-.39a10.293 10.293 0 0 1-.469-1.759c-.13-.442-.26-.872-.39-1.289l-.313-1.328c-.078-.364-.169-.742-.273-1.133a5.346 5.346 0 0 0-.39-1.093 3.598 3.598 0 0 0-.352-1.172 3.135 3.135 0 0 1-.235-1.172c-.13-.417-.247-.833-.351-1.25a10.962 10.962 0 0 0-.313-1.25 3.866 3.866 0 0 0-.195-.586 4.588 4.588 0 0 1-.195-.547 6.18 6.18 0 0 1-.196-.742l-.156-.781a19.021 19.021 0 0 0-.234-.664l-.235-.703c-.13-.443-.26-.873-.39-1.29a24.996 24.996 0 0 0-.352-1.328c-.13-.494-.26-.976-.39-1.445a4.143 4.143 0 0 0-.586-1.406 2.159 2.159 0 0 1-.196-.43A1.649 1.649 0 0 0 0 3.695c.052-.208.065-.442.04-.703-.027-.286.012-.508.116-.664h.938c.364-.026.638-.013.82.04a.495.495 0 0 0 .234-.118.868.868 0 0 1 .274-.117c.156.078.312.117.469.117.234 0 .416-.052.546-.156.287.13.443.156.47.078.025-.078.09-.117.195-.117.156.052.273.169.351.351.078.156.156.3.234.43a6.53 6.53 0 0 1 .625 1.562c.157.495.313 1.03.47 1.602.182.52.35 1.042.507 1.563.156.494.3 1.002.43 1.523.078.26.143.52.195.781l.156.781c.078.287.17.56.274.82.104.235.208.495.312.782l.157.86c.052.26.117.533.195.82.052.208.117.403.195.586.078.182.143.377.195.586.053.208.105.43.157.664l.156.625c.13.52.273 1.041.43 1.562.156.495.3 1.003.43 1.524.13-.079.208-.222.234-.43.026-.209.078-.378.156-.508.052-.312.13-.651.234-1.016.13-.364.248-.703.352-1.015a7.65 7.65 0 0 1 .078-.352c.052-.104.104-.221.156-.351.078-.157.13-.313.156-.47a4.09 4.09 0 0 1 .118-.546l.312-1.094c.13-.364.248-.729.352-1.093.104-.339.195-.69.273-1.055.078-.365.182-.703.313-1.016.13-.286.234-.56.312-.82.104-.26.195-.534.274-.82.078-.287.143-.573.195-.86.052-.286.143-.547.273-.781.053-.13.104-.273.157-.43a6.52 6.52 0 0 0 .195-.508c.13-.416.247-.833.351-1.25.105-.416.248-.833.43-1.25.13-.364.287-.716.469-1.054.182-.339.338-.69.469-1.055.104-.26.195-.43.273-.508l.235-.234ZM30.352 1.43l.39 1.406c.13.443.287.885.469 1.328.39.052.625.091.703.117.104.026.221.065.352.117.286.678.455 1.407.507 2.188.079.755.183 1.497.313 2.226a6.178 6.178 0 0 1 1.055 2.11c.234.729.494 1.471.78 2.226.079.26.131.43.157.508.026.052.04.104.04.156.155.443.312.899.468 1.368.156.468.325.924.508 1.367l.234.703c.104.208.195.417.274.625.078.26.143.534.195.82l.234.782c.183.52.378 1.041.586 1.562l.625 1.563c.078.182.222.585.43 1.21.234.625.469 1.29.703 1.993.234.677.443 1.315.625 1.914.208.573.313.924.313 1.054 0 .209.012.43.039.665.052.208.09.43.117.664-.104.26-.235.403-.39.43a.788.788 0 0 1-.43-.04l-.391.156-.313.157a.49.49 0 0 0-.195.117.265.265 0 0 1-.195.078c-.313 0-.521.026-.625.078-.078.078-.209.117-.39.117-.235-.078-.392-.09-.47-.039a.442.442 0 0 1-.156.157.775.775 0 0 1-.352.078c-.13 0-.26.013-.39.039l-.156-.313a1.328 1.328 0 0 0-.157-.351 4.886 4.886 0 0 1-.625-1.211 16.68 16.68 0 0 0-.273-.938 11.9 11.9 0 0 1-.352-.86 5.716 5.716 0 0 0-.312-.859c-.156.053-.3.118-.43.196a.71.71 0 0 0-.312.234c-.313 0-.47.04-.47.117a.42.42 0 0 1-.077.235 3.05 3.05 0 0 0-.39.156c-.079.052-.222.065-.43.039-.13.13-.26.247-.391.352-.13.078-.3.13-.508.156-.208.208-.43.39-.664.547-.208.13-.456.156-.742.078l-1.094.234c-.365.052-.73.078-1.094.078-.416-.13-.677-.247-.78-.351-.105-.104-.261-.157-.47-.157.026-.364-.052-.611-.234-.742v-.351c.026-.183.065-.3.117-.352.339-.156.534-.325.586-.508.052-.182.195-.3.43-.351a2.53 2.53 0 0 1 .156-.274 2.06 2.06 0 0 0 .195-.312c.13-.052.235-.091.313-.117.104-.026.182-.104.234-.235.13 0 .326-.078.586-.234.26-.182.43-.326.508-.43.208-.078.338-.143.39-.195a.697.697 0 0 1 .196-.195c.26.026.43 0 .508-.078.208.104.442.156.703.156h.273a.864.864 0 0 1 .274-.04c.208-.208.468-.338.78-.39.34-.078.613-.221.821-.43a4.352 4.352 0 0 1-.195-.742c-.052-.312-.143-.56-.273-.742a4.185 4.185 0 0 0-.274-.977 16.984 16.984 0 0 1-.273-.898 32.72 32.72 0 0 0-1.016-3.203 26.8 26.8 0 0 1-.977-3.203 2.722 2.722 0 0 0-.195-.39 7.834 7.834 0 0 0-.156-.43c-.13.312-.195.494-.195.546 0 .026-.026.065-.079.117a7.52 7.52 0 0 1-.078.352 5.943 5.943 0 0 1-.117.313 11.09 11.09 0 0 0-.234.703c-.052.234-.104.455-.157.664-.13.443-.247.911-.351 1.406-.104.469-.221.938-.352 1.406-.26.808-.534 1.615-.82 2.422-.26.781-.52 1.576-.781 2.383a4.26 4.26 0 0 1-.195.86 7.723 7.723 0 0 1-.196.585l-.156.547a3.235 3.235 0 0 0-.04.43c-.364.833-.676 1.68-.937 2.539-.234.86-.534 1.693-.898 2.5a1.044 1.044 0 0 0-.273.195.375.375 0 0 1-.274.117c-.208 0-.326-.052-.352-.156 0-.104-.052-.156-.156-.156a.481.481 0 0 0-.273.078.986.986 0 0 0-.235.117 2.047 2.047 0 0 0-.468-.117c-.157 0-.274-.052-.352-.156a.937.937 0 0 1-.547.195c-.208 0-.416-.065-.625-.195a1.476 1.476 0 0 1-.468.078c-.079 0-.17-.013-.274-.04a.495.495 0 0 1-.234-.116 1.28 1.28 0 0 1-.04-.313v-.351c0-.26-.025-.456-.078-.586.47-1.328.925-2.67 1.368-4.024.442-1.38.885-2.773 1.328-4.18.234-.65.456-1.289.664-1.914.234-.625.456-1.263.664-1.914.104-.364.195-.703.273-1.015.078-.339.183-.664.313-.977l.625-2.031c.234-.703.443-1.393.625-2.07a.492.492 0 0 0 .195-.274 2.76 2.76 0 0 1 .117-.351l-.039-.508c.183-.26.3-.482.352-.664.078-.209.13-.417.156-.625.13-.313.248-.651.352-1.016.104-.364.182-.703.234-1.016.052-.416.078-.885.078-1.406.026-.547.104-1.002.235-1.367a.898.898 0 0 1 .117-.195c.052-.052.078-.143.078-.274l.156-.156a.616.616 0 0 0 .156-.234c.13-.209.17-.39.118-.547a3.087 3.087 0 0 1-.04-.508c.235-.13.339-.247.313-.352a1.286 1.286 0 0 1-.04-.312c0-.13.08-.247.235-.352.183-.13.3-.26.352-.39l.469.078c.156 0 .312-.013.468-.04.183.34.404.509.664.509l.079.039ZM57.344 24.32c.182.235.286.43.312.586.052.13.104.274.157.43.052.13.09.26.117.39.052.13.078.209.078.235a.894.894 0 0 1-.117.469 3.521 3.521 0 0 1-.274.43c-1.041.39-2.07.78-3.086 1.171-1.015.365-2.057.73-3.125 1.094-.286.078-.547.17-.781.273a5.695 5.695 0 0 1-.781.196.84.84 0 0 1-.274.156 5.454 5.454 0 0 0-.39.117l-.47.156a1.64 1.64 0 0 1-.273.04 2.903 2.903 0 0 1-.703.078 3.18 3.18 0 0 0-.703 0 .366.366 0 0 0-.273.195 5.315 5.315 0 0 1-.196.352.98.98 0 0 1-.273.312c-.13.078-.312.117-.547.117-.234 0-.469-.013-.703-.039a2.853 2.853 0 0 1-.742-.195.481.481 0 0 1-.078-.274c.026-.13.013-.234-.04-.312-.234-.026-.416 0-.546.078a2.23 2.23 0 0 1-.39.117 1.531 1.531 0 0 1-.196-.351.7.7 0 0 0-.195-.391c-.026-.13-.04-.26-.04-.39v-1.016c.027-.26.079-.456.157-.586.078-1.485.117-2.969.117-4.453V18.266c0-.26-.013-.521-.04-.782a5.7 5.7 0 0 0-.038-.703c0-.234-.013-.403-.04-.508.027-.182.04-.351.04-.507V14.789c0-.13-.026-.26-.078-.39.026-.105.039-.248.039-.43 0-.13-.013-.26-.04-.39-.025-.131-.038-.261-.038-.392v-.585c.026-.209.039-.417.039-.625 0-.678-.04-1.342-.117-1.993a26.466 26.466 0 0 1-.079-2.03c0-.886-.013-1.772-.039-2.657 0-.886-.013-1.771-.039-2.656.104-.26.157-.482.157-.664.364-.183.65-.248.859-.196.208.052.417.078.625.078.13 0 .247-.013.351-.039.105-.026.209-.065.313-.117.13.026.234.065.312.117.105.026.222.04.352.04.39-.079.599-.092.625-.04.052.052.117.104.195.157a.495.495 0 0 0 .235-.118.375.375 0 0 1 .273-.117c.156 0 .274.104.352.313.078.182.169.338.273.468 0 .287.052.547.156.782.052 1.067.066 2.122.04 3.164 0 1.041.038 2.083.117 3.125.026.469.052.963.078 1.484.052.495.078.977.078 1.445v2.383c.026.781.039 1.576.039 2.383v.352c.026.104.039.221.039.351 0 .313-.013.612-.04.899a9.503 9.503 0 0 0-.038.859v3.047c0 .26-.013.534-.04.82 0 .26.014.521.04.781l.156.47c.287-.105.573-.21.86-.313.312-.13.637-.222.976-.274.208-.052.404-.104.586-.156.182-.052.378-.104.586-.156.364-.209.651-.352.86-.43l.624-.234a70.57 70.57 0 0 0 1.29-.47c.416-.181.846-.35 1.288-.507.209.052.378.026.508-.078.26.052.495.078.703.078.287.287.456.508.508.664.078.156.183.3.313.43-.052.13-.052.208 0 .234.078.026.13.091.156.196.104.052.117.13.039.234a.615.615 0 0 0-.156.234ZM76.875 2.094c.313-.078.534-.104.664-.078.13 0 .26.013.39.039.157.104.287.234.391.39 0 .547-.013 1.094-.039 1.64v1.603c0 .99.013 1.979.04 2.968.025.99.025 1.98 0 2.969.051.234.064.365.038.39-.026.027-.039.066-.039.118 0 .99.026 1.966.078 2.93.053.963.079 1.94.079 2.93v5.195c0 1.12.026 2.226.078 3.32.078 1.094.117 2.187.117 3.281 0 .104-.065.247-.195.43-.053.208-.13.377-.235.508a1.168 1.168 0 0 1-.664-.118.263.263 0 0 0-.234.118.444.444 0 0 1-.156.156.788.788 0 0 0-.508.156.728.728 0 0 1-.47.156c-.155 0-.312-.026-.468-.078a2.422 2.422 0 0 0-.469-.039c-.052 0-.13.04-.234.117a1.11 1.11 0 0 1-.234.196c-.13 0-.248.013-.352.039a.775.775 0 0 1-.351.078c-.13-.104-.196-.26-.196-.469.026-.208-.052-.338-.234-.39v-.43c.026-.157.039-.313.039-.469 0-1.016-.026-2.031-.078-3.047a127.18 127.18 0 0 1-.117-3.086 22 22 0 0 1-.04-1.289c.027-.443.04-.885.04-1.328v-.703a2.73 2.73 0 0 0-.079-.664.614.614 0 0 0-.43.078.775.775 0 0 1-.35.078c-.548.182-.912.365-1.094.547a.869.869 0 0 0-.391.078 4.707 4.707 0 0 1-.352.156l-.625.157a2.81 2.81 0 0 0-.586.156l-.39.156-.39.156-.86.313c-.287.078-.573.17-.86.273-.286.052-.533.13-.742.235l-.625.312a28.363 28.363 0 0 0-.312 3.516c0 1.093.039 2.187.117 3.281a1.73 1.73 0 0 0-.078.547c0 .182-.04.338-.117.469-.287.078-.482.09-.586.039a1.042 1.042 0 0 0-.274-.196.579.579 0 0 0-.273.157 1.272 1.272 0 0 1-.156.195.788.788 0 0 0-.508.156 2.056 2.056 0 0 1-.313.195.362.362 0 0 1-.234 0c-.078-.026-.17-.013-.274.04-.26 0-.39-.026-.39-.079.026-.078 0-.117-.078-.117-.105 0-.183.052-.235.157-.026.078-.09.143-.195.195a1.39 1.39 0 0 1-.352.117c-.13 0-.26.026-.39.078a.597.597 0 0 1-.196-.43c0-.156-.065-.299-.195-.43a16.348 16.348 0 0 1-.117-1.054c0-.365-.04-.73-.117-1.094.052-.729.065-1.315.039-1.758v-1.367c0-.416-.013-.833-.04-1.25l-.077-1.25c-.052-.755-.105-1.523-.157-2.304a70.187 70.187 0 0 1-.039-2.344c0-.651.026-1.29.078-1.914.079-.625.118-1.263.118-1.914v-1.29c.026-.442.039-.885.039-1.327 0-.365-.013-.717-.04-1.055V9.242c0-.39.027-.768.079-1.133.052-.39.078-.768.078-1.132 0-.443-.026-.873-.078-1.29a11.354 11.354 0 0 1-.078-1.328c0-.13.013-.247.039-.351.026-.13.039-.26.039-.39-.026-.287-.013-.457.039-.509.052-.078.104-.169.156-.273.13-.026.273-.065.43-.117a.609.609 0 0 1 .43 0c.156-.156.364-.235.624-.235.287 0 .495-.09.625-.273.183.026.3.039.352.039a.642.642 0 0 1 .195-.04c.235.053.352.053.352 0 .026-.077.078-.116.156-.116.13 0 .326.013.586.039.287 0 .482.052.586.156.26 1.38.404 2.787.43 4.219.026 1.432.039 2.851.039 4.258 0 .364.013.742.039 1.132.026.365.013.73-.04 1.094 0 .156-.012.313-.038.469a2.19 2.19 0 0 0-.04.43c0 .442-.025.911-.078 1.406-.052.469-.078.924-.078 1.367.313.182.573.247.782.195.234-.078.455-.156.664-.234.26-.078.494-.156.703-.234.234-.104.469-.196.703-.274.208-.104.43-.182.664-.234.26-.078.495-.143.703-.195a14.82 14.82 0 0 0 1.992-.86 11.899 11.899 0 0 1 1.993-.82 117.13 117.13 0 0 1-.079-4.258V4.282c0-.417.026-.821.079-1.212.025-.104.052-.182.078-.234a.555.555 0 0 0 .078-.313.687.687 0 0 1 .273-.273.511.511 0 0 0 .235-.234l.156.156.234.078c.209-.052.326-.091.352-.117L75 2.055c.13-.052.3-.078.508-.078h.976l.391.117ZM91.328 1.43l.39 1.406c.131.443.287.885.47 1.328.39.052.624.091.703.117.104.026.221.065.351.117.287.678.456 1.407.508 2.188.078.755.182 1.497.313 2.226a6.178 6.178 0 0 1 1.054 2.11c.235.729.495 1.471.781 2.226.079.26.13.43.157.508.026.052.039.104.039.156.156.443.312.899.469 1.368.156.468.325.924.507 1.367l.235.703c.104.208.195.417.273.625.078.26.143.534.195.82l.235.782c.182.52.377 1.041.586 1.562l.625 1.563c.078.182.221.585.43 1.21.234.625.468 1.29.703 1.993.234.677.442 1.315.625 1.914.208.573.312.924.312 1.054 0 .209.013.43.039.665.052.208.091.43.117.664-.104.26-.234.403-.39.43a.788.788 0 0 1-.43-.04l-.391.156-.312.157a.49.49 0 0 0-.195.117.265.265 0 0 1-.196.078c-.312 0-.52.026-.625.078-.078.078-.208.117-.39.117-.235-.078-.391-.09-.47-.039a.441.441 0 0 1-.155.157.775.775 0 0 1-.352.078c-.13 0-.26.013-.39.039l-.157-.313a1.329 1.329 0 0 0-.156-.351 4.89 4.89 0 0 1-.625-1.211c-.104-.39-.195-.703-.273-.938-.13-.286-.248-.573-.352-.86a5.705 5.705 0 0 0-.313-.859c-.156.053-.299.118-.43.196a.71.71 0 0 0-.312.234c-.312 0-.469.04-.469.117a.42.42 0 0 1-.078.235 3.039 3.039 0 0 0-.39.156c-.078.052-.222.065-.43.039-.13.13-.26.247-.39.352-.13.078-.3.13-.508.156-.209.208-.43.39-.664.547-.209.13-.456.156-.743.078l-1.093.234c-.365.052-.73.078-1.094.078-.417-.13-.677-.247-.781-.351-.105-.104-.26-.157-.47-.157.027-.364-.051-.611-.234-.742v-.351c.026-.183.066-.3.118-.352.338-.156.533-.325.586-.508.052-.182.195-.3.43-.351.051-.104.103-.195.156-.274a2.06 2.06 0 0 0 .195-.312 5.91 5.91 0 0 1 .312-.117c.105-.026.183-.104.235-.235.13 0 .325-.078.586-.234.26-.182.43-.326.507-.43.209-.078.339-.143.391-.195a.698.698 0 0 1 .195-.195c.26.026.43 0 .508-.078.209.104.443.156.703.156h.274a.864.864 0 0 1 .273-.04 1.4 1.4 0 0 1 .781-.39c.339-.078.612-.221.82-.43a4.352 4.352 0 0 1-.195-.742c-.052-.312-.143-.56-.273-.742a4.185 4.185 0 0 0-.273-.977 16.98 16.98 0 0 1-.274-.898 32.747 32.747 0 0 0-1.015-3.203 26.763 26.763 0 0 1-.977-3.203 2.733 2.733 0 0 0-.195-.39 7.83 7.83 0 0 0-.157-.43c-.13.312-.195.494-.195.546 0 .026-.026.065-.078.117a7.65 7.65 0 0 1-.078.352 6.036 6.036 0 0 1-.117.313c-.078.208-.157.442-.235.703-.052.234-.104.455-.156.664-.13.443-.247.911-.352 1.406-.104.469-.22.938-.351 1.406a88.17 88.17 0 0 1-.82 2.422c-.26.781-.521 1.576-.782 2.383a4.26 4.26 0 0 1-.195.86 7.723 7.723 0 0 1-.195.585l-.156.547c-.026.182-.04.326-.04.43-.364.833-.677 1.68-.937 2.539-.234.86-.534 1.693-.898 2.5a1.042 1.042 0 0 0-.274.195.375.375 0 0 1-.273.117c-.209 0-.326-.052-.352-.156 0-.104-.052-.156-.156-.156a.481.481 0 0 0-.274.078.982.982 0 0 0-.234.117 2.048 2.048 0 0 0-.469-.117c-.156 0-.273-.052-.351-.156a.937.937 0 0 1-.547.195c-.209 0-.417-.065-.625-.195a1.477 1.477 0 0 1-.469.078c-.078 0-.17-.013-.273-.04a.495.495 0 0 1-.235-.116 1.286 1.286 0 0 1-.039-.313v-.351c0-.26-.026-.456-.078-.586.469-1.328.924-2.67 1.367-4.024.443-1.38.886-2.773 1.328-4.18.235-.65.456-1.289.664-1.914.235-.625.456-1.263.665-1.914.104-.364.195-.703.273-1.015.078-.339.182-.664.312-.977l.625-2.031a36.8 36.8 0 0 0 .625-2.07.492.492 0 0 0 .196-.274c.026-.104.065-.221.117-.351l-.04-.508c.183-.26.3-.482.352-.664.079-.209.13-.417.157-.625.13-.313.247-.651.351-1.016.104-.364.182-.703.235-1.016.052-.416.078-.885.078-1.406.026-.547.104-1.002.234-1.367a.906.906 0 0 1 .117-.195c.052-.052.078-.143.078-.274l.157-.156a.615.615 0 0 0 .156-.234c.13-.209.17-.39.117-.547a3.098 3.098 0 0 1-.039-.508c.234-.13.339-.247.313-.352a1.281 1.281 0 0 1-.04-.312c0-.13.079-.247.235-.352.182-.13.3-.26.351-.39l.47.078c.155 0 .312-.013.468-.04.182.34.404.509.664.509l.078.039ZM118.32 24.32c.183.235.287.43.313.586.052.13.104.274.156.43.052.13.091.26.117.39.052.13.078.209.078.235a.896.896 0 0 1-.117.469 3.52 3.52 0 0 1-.273.43c-1.042.39-2.071.78-3.086 1.171-1.016.365-2.057.73-3.125 1.094-.287.078-.547.17-.781.273a5.708 5.708 0 0 1-.782.196.839.839 0 0 1-.273.156 5.456 5.456 0 0 0-.391.117l-.468.156c-.131.026-.222.04-.274.04a2.903 2.903 0 0 1-.703.078 3.178 3.178 0 0 0-.703 0 .367.367 0 0 0-.274.195 5.3 5.3 0 0 1-.195.352.98.98 0 0 1-.273.312c-.131.078-.313.117-.547.117-.235 0-.469-.013-.703-.039a2.858 2.858 0 0 1-.743-.195.482.482 0 0 1-.078-.274c.026-.13.013-.234-.039-.312-.234-.026-.416 0-.547.078-.13.052-.26.091-.39.117a1.572 1.572 0 0 1-.196-.351.7.7 0 0 0-.195-.391 1.99 1.99 0 0 1-.039-.39v-1.016c.026-.26.078-.456.156-.586.078-1.485.117-2.969.117-4.453V18.266c0-.26-.013-.521-.039-.782 0-.26-.013-.494-.039-.703 0-.234-.013-.403-.039-.508.026-.182.039-.351.039-.507V14.789c0-.13-.026-.26-.078-.39.026-.105.039-.248.039-.43 0-.13-.013-.26-.039-.39a1.99 1.99 0 0 1-.039-.392v-.585c.026-.209.039-.417.039-.625 0-.678-.039-1.342-.117-1.993a26.517 26.517 0 0 1-.078-2.03c0-.886-.013-1.772-.039-2.657 0-.886-.013-1.771-.039-2.656.104-.26.156-.482.156-.664.365-.183.651-.248.859-.196.209.052.417.078.625.078.131 0 .248-.013.352-.039.104-.026.208-.065.313-.117a.87.87 0 0 1 .312.117c.104.026.221.04.352.04.39-.079.599-.092.625-.04.052.052.117.104.195.157a.494.494 0 0 0 .234-.118.376.376 0 0 1 .274-.117c.156 0 .273.104.351.313.078.182.17.338.274.468 0 .287.052.547.156.782.052 1.067.065 2.122.039 3.164 0 1.041.039 2.083.117 3.125.026.469.052.963.078 1.484.052.495.078.977.078 1.445v2.383c.026.781.039 1.576.039 2.383v.352c.027.104.04.221.04.351 0 .313-.013.612-.04.899a9.503 9.503 0 0 0-.039.859v3.047c0 .26-.013.534-.039.82 0 .26.013.521.039.781l.157.47c.286-.105.573-.21.859-.313.313-.13.638-.222.977-.274.208-.052.403-.104.586-.156.182-.052.377-.104.586-.156.364-.209.651-.352.859-.43l.625-.234c.443-.157.872-.313 1.289-.47.417-.181.846-.35 1.289-.507.208.052.378.026.508-.078.26.052.495.078.703.078.286.287.456.508.508.664.078.156.182.3.312.43-.052.13-.052.208 0 .234.078.026.13.091.157.196.104.052.117.13.039.234a.608.608 0 0 0-.157.234ZM135.859 24.32c.183.235.287.43.313.586.052.13.104.274.156.43.052.13.091.26.117.39.052.13.078.209.078.235a.896.896 0 0 1-.117.469 3.52 3.52 0 0 1-.273.43c-1.042.39-2.071.78-3.086 1.171-1.016.365-2.057.73-3.125 1.094-.287.078-.547.17-.781.273a5.708 5.708 0 0 1-.782.196.839.839 0 0 1-.273.156 5.614 5.614 0 0 0-.391.117l-.468.156c-.131.026-.222.04-.274.04a2.903 2.903 0 0 1-.703.078 3.178 3.178 0 0 0-.703 0 .369.369 0 0 0-.274.195 5.3 5.3 0 0 1-.195.352.98.98 0 0 1-.273.312c-.131.078-.313.117-.547.117-.235 0-.469-.013-.703-.039a2.858 2.858 0 0 1-.743-.195.482.482 0 0 1-.078-.274c.026-.13.013-.234-.039-.312-.234-.026-.416 0-.547.078-.13.052-.26.091-.39.117a1.572 1.572 0 0 1-.196-.351.7.7 0 0 0-.195-.391 1.99 1.99 0 0 1-.039-.39v-1.016c.026-.26.078-.456.156-.586.078-1.485.118-2.969.118-4.453V18.266c0-.26-.013-.521-.04-.782 0-.26-.013-.494-.039-.703 0-.234-.013-.403-.039-.508.026-.182.039-.351.039-.507V14.789c0-.13-.026-.26-.078-.39.026-.105.039-.248.039-.43 0-.13-.013-.26-.039-.39a1.99 1.99 0 0 1-.039-.392v-.585c.026-.209.039-.417.039-.625 0-.678-.039-1.342-.117-1.993a26.517 26.517 0 0 1-.078-2.03c0-.886-.013-1.772-.039-2.657 0-.886-.013-1.771-.039-2.656.104-.26.156-.482.156-.664.365-.183.651-.248.86-.196.208.052.416.078.624.078.131 0 .248-.013.352-.039.104-.026.208-.065.313-.117a.87.87 0 0 1 .312.117c.104.026.221.04.352.04.39-.079.599-.092.625-.04.052.052.117.104.195.157a.494.494 0 0 0 .234-.118.376.376 0 0 1 .274-.117c.156 0 .273.104.351.313.078.182.17.338.274.468 0 .287.052.547.156.782.052 1.067.065 2.122.039 3.164 0 1.041.039 2.083.117 3.125.026.469.052.963.078 1.484.052.495.078.977.078 1.445v2.383c.027.781.04 1.576.04 2.383v.352c.026.104.039.221.039.351 0 .313-.013.612-.039.899-.026.286-.04.573-.04.859v3.047c0 .26-.013.534-.039.82 0 .26.013.521.039.781l.157.47c.286-.105.573-.21.859-.313.313-.13.638-.222.977-.274.208-.052.403-.104.586-.156.182-.052.377-.104.586-.156.364-.209.651-.352.859-.43l.625-.234c.443-.157.872-.313 1.289-.47.417-.181.846-.35 1.289-.507.208.052.378.026.508-.078.26.052.495.078.703.078.286.287.456.508.508.664.078.156.182.3.312.43-.052.13-.052.208 0 .234.078.026.131.091.157.196.104.052.117.13.039.234a.62.62 0 0 0-.157.234ZM146.602 1.43l.39 1.406c.13.443.287.885.469 1.328.391.052.625.091.703.117.104.026.221.065.352.117.286.678.455 1.407.507 2.188.079.755.183 1.497.313 2.226a6.188 6.188 0 0 1 1.055 2.11c.234.729.494 1.471.781 2.226.078.26.13.43.156.508a.347.347 0 0 1 .039.156c.156.443.313.899.469 1.368.156.468.325.924.508 1.367l.234.703c.104.208.195.417.274.625.078.26.143.534.195.82l.234.782c.183.52.378 1.041.586 1.562l.625 1.563c.078.182.222.585.43 1.21.234.625.469 1.29.703 1.993.234.677.443 1.315.625 1.914.208.573.312.924.312 1.054 0 .209.014.43.04.665.052.208.091.43.117.664-.104.26-.235.403-.391.43a.79.79 0 0 1-.43-.04l-.39.156-.313.157a.489.489 0 0 0-.195.117.264.264 0 0 1-.195.078c-.313 0-.521.026-.625.078-.078.078-.209.117-.391.117-.234-.078-.391-.09-.469-.039a.441.441 0 0 1-.156.157.774.774 0 0 1-.352.078c-.13 0-.26.013-.39.039l-.156-.313a1.305 1.305 0 0 0-.157-.351 4.93 4.93 0 0 1-.625-1.211c-.104-.39-.195-.703-.273-.938a12.43 12.43 0 0 1-.352-.86 5.713 5.713 0 0 0-.312-.859 2.16 2.16 0 0 0-.43.196.71.71 0 0 0-.312.234c-.313 0-.469.04-.469.117a.42.42 0 0 1-.078.235 3.059 3.059 0 0 0-.391.156c-.078.052-.221.065-.429.039-.131.13-.261.247-.391.352a1.3 1.3 0 0 1-.508.156c-.208.208-.43.39-.664.547-.208.13-.456.156-.742.078l-1.094.234a7.726 7.726 0 0 1-1.094.078c-.416-.13-.677-.247-.781-.351-.104-.104-.26-.157-.469-.157.026-.364-.052-.611-.234-.742v-.351c.026-.183.065-.3.117-.352.339-.156.534-.325.586-.508.052-.182.195-.3.43-.351.052-.104.104-.195.156-.274.078-.104.143-.208.195-.312.131-.052.235-.091.313-.117.104-.026.182-.104.234-.235.13 0 .326-.078.586-.234.261-.182.43-.326.508-.43.208-.078.338-.143.391-.195a.697.697 0 0 1 .195-.195c.26.026.43 0 .508-.078.208.104.442.156.703.156h.273a.868.868 0 0 1 .274-.04c.208-.208.468-.338.781-.39.338-.078.612-.221.82-.43a4.354 4.354 0 0 1-.195-.742c-.052-.312-.143-.56-.274-.742a4.19 4.19 0 0 0-.273-.977 16.962 16.962 0 0 1-.273-.898 32.776 32.776 0 0 0-1.016-3.203 26.82 26.82 0 0 1-.977-3.203 2.73 2.73 0 0 0-.195-.39 7.84 7.84 0 0 0-.156-.43c-.13.312-.195.494-.195.546 0 .026-.026.065-.079.117-.026.13-.052.248-.078.352a6 6 0 0 1-.117.313 11.1 11.1 0 0 0-.234.703c-.052.234-.104.455-.157.664a18.5 18.5 0 0 0-.351 1.406c-.104.469-.221.938-.352 1.406-.26.808-.533 1.615-.82 2.422-.26.781-.521 1.576-.781 2.383a4.186 4.186 0 0 1-.196.86 7.713 7.713 0 0 1-.195.585l-.156.547a3.235 3.235 0 0 0-.039.43 22.93 22.93 0 0 0-.938 2.539c-.234.86-.533 1.693-.898 2.5a1.064 1.064 0 0 0-.274.195.374.374 0 0 1-.273.117c-.208 0-.325-.052-.351-.156 0-.104-.053-.156-.157-.156a.48.48 0 0 0-.273.078 1.006 1.006 0 0 0-.235.117 2.042 2.042 0 0 0-.468-.117c-.157 0-.274-.052-.352-.156a.935.935 0 0 1-.547.195c-.208 0-.416-.065-.625-.195a1.474 1.474 0 0 1-.469.078c-.078 0-.169-.013-.273-.04a.494.494 0 0 1-.234-.116 1.286 1.286 0 0 1-.039-.313v-.351c0-.26-.026-.456-.078-.586.468-1.328.924-2.67 1.367-4.024.442-1.38.885-2.773 1.328-4.18.234-.65.456-1.289.664-1.914.234-.625.456-1.263.664-1.914.104-.364.195-.703.273-1.015.078-.339.183-.664.313-.977l.625-2.031c.234-.703.443-1.393.625-2.07a.491.491 0 0 0 .195-.274c.026-.104.065-.221.117-.351l-.039-.508c.183-.26.3-.482.352-.664a2.75 2.75 0 0 0 .156-.625c.13-.313.248-.651.352-1.016.104-.364.182-.703.234-1.016.052-.416.078-.885.078-1.406.026-.547.104-1.002.235-1.367a.904.904 0 0 1 .117-.195c.052-.052.078-.143.078-.274l.156-.156a.615.615 0 0 0 .156-.234c.131-.209.17-.39.118-.547a3.094 3.094 0 0 1-.04-.508c.235-.13.339-.247.313-.352a1.286 1.286 0 0 1-.039-.312c0-.13.078-.247.234-.352.183-.13.3-.26.352-.39l.469.078c.156 0 .312-.013.468-.04.183.34.404.509.664.509l.079.039ZM174.219 30.375l-.235.156-.234.157c-.286.156-.547.247-.781.273-.235 0-.495.13-.781.39-.105-.13-.183-.195-.235-.195h-.273c-.339 0-.534-.09-.586-.273a3.62 3.62 0 0 0-.508.195l-.469.235c.235-.339.391-.6.469-.782.078-.182.117-.351.117-.508a2.85 2.85 0 0 0 .039-.468 4.47 4.47 0 0 1 .196-.742c.052-.105.091-.209.117-.313.026-.104.065-.221.117-.352.13-.39.234-.833.312-1.328.105-.494.261-.924.469-1.289 0-.442.091-.86.274-1.25.208-.39.377-.794.507-1.21a3.59 3.59 0 0 1 .196-.47c.104-.156.182-.312.234-.468.104-.26.182-.508.234-.742.079-.26.157-.508.235-.743.208-.755.416-1.497.625-2.226.208-.755.403-1.51.586-2.266.026-.13.052-.273.078-.43.052-.156.104-.299.156-.43.13-.39.208-.78.234-1.171.053-.417.183-.807.391-1.172a1.66 1.66 0 0 1 0-.508c.052-.156.104-.325.156-.508.052-.182.105-.351.157-.507l.117-.352c.13-.338.221-.638.273-.898.078-.287.222-.586.43-.899l.117-.39c.078-.287.169-.6.274-.938.104-.338.195-.65.273-.937.078-.313.117-.495.117-.547a5.83 5.83 0 0 0 .117-.586c.052-.182.105-.378.157-.586.052-.13.104-.234.156-.313.052-.104.104-.221.156-.351.078-.287.156-.638.235-1.055.078-.417.182-.742.312-.976a.86.86 0 0 1 .43-.43c.234-.13.429-.26.586-.39.468.051.807.025 1.015-.079.235-.104.456-.234.664-.39.131.026.248.065.352.117.13.026.26.039.391.039.494.547.833 1.107 1.015 1.68.208.572.404 1.145.586 1.718l.234.86c.079.26.17.52.274.78.026.079.065.17.117.274.052.078.104.17.156.274.131.208.235.43.313.664.104.234.195.468.273.703.156.182.274.404.352.664.078.234.143.482.195.742l.235.703c.078.209.195.39.351.547.052.287.143.573.273.86.131.26.222.546.274.859.156.208.338.612.547 1.21.208.574.416 1.199.625 1.876.208.677.403 1.328.586 1.953.182.625.312 1.068.39 1.328.052.208.157.482.313.82l.43.86c.104.286.208.586.312.898.13.313.234.612.313.899.052.286.104.56.156.82.078.26.156.534.234.82.052.183.13.352.235.508.104.13.182.3.234.508.104.208.169.404.195.586.052.182.143.377.274.586-.026.286-.013.468.039.547.052.078.104.169.156.273.104.547.221.99.352 1.328.13.313.195.651.195 1.016 0 .312-.065.508-.195.586a4.322 4.322 0 0 0-.43.39 5.46 5.46 0 0 1-.547.43c-.13.104-.339.156-.625.156-.313-.026-.508.013-.586.117-.052.13-.091.222-.117.274a9.469 9.469 0 0 0-.625-.04.866.866 0 0 1-.274.04c-.078 0-.169.013-.273.039a1.332 1.332 0 0 0-.273.273 12.588 12.588 0 0 0-.547-.585 3.028 3.028 0 0 1-.43-.547c0-.443-.065-.964-.195-1.563-.104-.599-.222-1.068-.352-1.406a98.74 98.74 0 0 1-.742-1.992c-.208-.651-.417-1.315-.625-1.992a5.35 5.35 0 0 0-.274-.782 13.531 13.531 0 0 0-.273-.742c.052.208.065.43.039.664 0 .209-.065.417-.195.625a2.2 2.2 0 0 1-.235.195c-.104.079-.156.144-.156.196-.312.26-.586.508-.82.742.026.469-.039.794-.195.977a4.766 4.766 0 0 1-.508.507c-.443.026-.716 0-.821-.078a.926.926 0 0 0-.429-.156.638.638 0 0 0-.313 0h-.312a1.16 1.16 0 0 1-.586-.156 1.342 1.342 0 0 1-.196-.157.614.614 0 0 0-.117-.156 2.49 2.49 0 0 0-.742-.508 5.45 5.45 0 0 0-.781-.39c-.208-.183-.43-.365-.664-.547a3.026 3.026 0 0 0-.664-.508 18.36 18.36 0 0 0-.508 1.328c-.104.365-.234.73-.391 1.094a49.978 49.978 0 0 0-.703 2.344c-.182.65-.39 1.315-.625 1.992a1.52 1.52 0 0 0-.312.117.558.558 0 0 1-.313.078l-.273-.117Zm3.828-8.32c.208-.365.391-.56.547-.586a.935.935 0 0 0 .468-.313c.053-.052.105-.117.157-.195l.234-.234c.078-.053.169-.105.274-.157.104-.052.195-.117.273-.195.208-.182.378-.338.508-.469.156-.13.377-.195.664-.195.443 0 .807.117 1.094.352.286.208.638.351 1.054.43.052.155.222.273.508.35.287.053.508.131.664.235a14.168 14.168 0 0 1-.625-1.953 16.996 16.996 0 0 0-.508-1.992 17.808 17.808 0 0 0-.547-1.68 55.427 55.427 0 0 0-.624-1.64 19.695 19.695 0 0 1-.469-1.524c-.13-.495-.3-.976-.508-1.445a15.566 15.566 0 0 0-.625 1.719 18.705 18.705 0 0 0-.469 1.796c0 .235-.013.417-.039.547-.052.182-.104.352-.156.508a7.81 7.81 0 0 0-.156.43 60.48 60.48 0 0 0-.938 3.086 35.632 35.632 0 0 1-.937 3.125h.156ZM201.836 11.938c.156-.365.273-.586.352-.665.104-.104.156-.26.156-.468.26-.521.482-1.055.664-1.602.208-.573.443-1.133.703-1.68.234-.572.43-1.132.586-1.68.182-.572.391-1.145.625-1.718.026-.104.078-.26.156-.469.078-.208.156-.43.234-.664a8.52 8.52 0 0 1 .235-.625c.078-.208.143-.351.195-.43.052-.078.091-.143.117-.195a.992.992 0 0 0 .118-.234c.156 0 .26.013.312.039h.195c.183 0 .287.026.313.078.052.026.117.065.195.117.287.026.508.065.664.117.183.052.339.144.469.274.365.234.651.377.859.43.235.052.417.169.547.351.547.052.821.339.821.86-.131.364-.287.729-.469 1.093-.156.339-.3.677-.43 1.016a27.058 27.058 0 0 1-.781 2.187 35.362 35.362 0 0 1-.938 2.032c-.234.52-.468 1.054-.703 1.601a17.29 17.29 0 0 1-.703 1.602c-.13.442-.26.807-.39 1.093a19.23 19.23 0 0 1-.508 1.016c-.183.339-.339.69-.469 1.055-.13.13-.234.286-.313.468a4.358 4.358 0 0 1-.273.47c.052.234.143.455.273.663.157.183.3.39.43.625.026.183.078.365.156.547.078.156.157.326.235.508.312.573.612 1.224.898 1.953.313.703.625 1.315.938 1.836.338.52.586.99.742 1.406.182.417.404.886.664 1.407.052.13.117.247.195.351.078.078.156.182.235.313l.351.703c.104.234.222.468.352.703.156.208.299.43.429.664 0 .13.013.247.039.352.027.078.04.182.04.312-.183.313-.313.469-.391.469a.379.379 0 0 0-.195.078c-.469.182-.769.52-.899 1.015-.13.053-.26.092-.39.118-.131.026-.196.13-.196.312-.286.182-.534.195-.742.04-.13.13-.247.273-.351.429a.897.897 0 0 1-.43.39 1.338 1.338 0 0 1-.469-.468 1.621 1.621 0 0 0-.351-.508 1.265 1.265 0 0 0-.157-.469 1.216 1.216 0 0 1-.156-.43 4.605 4.605 0 0 1-.234-.43 6.771 6.771 0 0 0-.274-.624 5.099 5.099 0 0 0-.312-.547 1.932 1.932 0 0 0-.235-.352c-.208-.416-.39-.833-.547-1.25a10.15 10.15 0 0 0-.507-1.289 50.356 50.356 0 0 0-.977-2.07c-.312-.703-.612-1.393-.898-2.07-.131.026-.274.169-.43.43-.156.234-.3.507-.43.82-.13.312-.247.625-.351.937-.104.287-.17.508-.196.664-.13.183-.221.365-.273.547-.052.156-.143.3-.273.43-.131.443-.287.872-.469 1.289-.183.39-.378.794-.586 1.21a.738.738 0 0 1-.039.235.436.436 0 0 0-.039.196c-.287.468-.573.95-.86 1.445-.286.469-.547.963-.781 1.484a2.536 2.536 0 0 1-.273.235.574.574 0 0 1-.352.117c-.182 0-.351-.078-.508-.235a3.5 3.5 0 0 0-.429-.312c-.469-.182-.782-.378-.938-.586-.13-.182-.378-.26-.742-.234-.13-.183-.221-.26-.274-.235a.433.433 0 0 1-.195.04c-.208-.079-.338-.17-.391-.274a1.734 1.734 0 0 0-.156-.313c0-.26-.013-.43-.039-.507.026-.105.052-.196.078-.274a.868.868 0 0 0 .117-.273 3.77 3.77 0 0 0 .626-1.133c.156-.39.377-.755.664-1.094.078-.234.182-.456.312-.664a2.11 2.11 0 0 0 .274-.703 5.49 5.49 0 0 0 .468-.703c.13-.235.235-.495.313-.781a.49.49 0 0 0 .117-.196.49.49 0 0 1 .117-.195c.078-.234.169-.456.274-.664a3.72 3.72 0 0 0 .234-.703c.052-.026.156-.183.312-.469.157-.313.313-.638.469-.977.182-.364.339-.703.469-1.015.156-.339.26-.56.312-.664.183-.365.365-.677.547-.938.183-.26.339-.599.469-1.015a3.582 3.582 0 0 1-.195-.47.782.782 0 0 0-.235-.429c0-.286-.091-.56-.273-.82a2.409 2.409 0 0 1-.352-.86 5.244 5.244 0 0 1-.507-1.093 12.818 12.818 0 0 0-.352-1.172 1.526 1.526 0 0 0-.117-.313l-.156-.312-.664-1.25c-.209-.417-.43-.833-.665-1.25-.13-.26-.299-.56-.507-.899a18.963 18.963 0 0 1-.508-.937 53.185 53.185 0 0 1-.586-1.445c-.182-.495-.378-.99-.586-1.485 0-.208-.039-.43-.117-.664a2.106 2.106 0 0 1-.117-.664c.156-.156.273-.26.351-.312a.6.6 0 0 0 .235-.196c.208 0 .403-.09.585-.273.261-.026.521-.065.782-.117.26-.078.507-.196.742-.352.26 0 .469-.039.625-.117a.961.961 0 0 1 .547-.156c.208.052.338.104.39.156.052.052.118.104.196.156l2.265 5.078a912.777 912.777 0 0 1 2.266 5.117ZM219.258 20.766c.052.13.234.403.547.82.338.417.716.872 1.133 1.367.416.495.807.977 1.171 1.445.391.443.664.769.821.977.286.365.56.73.82 1.094.286.338.547.703.781 1.093l.703 1.172c.209.26.391.482.547.664.183.183.326.43.43.743.052.208.078.351.078.43 0 .182-.065.312-.195.39-.209 0-.326.026-.352.078 0 .078-.052.143-.156.195-.104.052-.274.078-.508.078a4.27 4.27 0 0 1-.508.04c-.234 0-.534-.014-.898-.04-.339 0-.612.04-.82.118l-.235.117a.598.598 0 0 1-.234.078c-.209 0-.365-.04-.469-.117a.917.917 0 0 0-.352-.117 6.435 6.435 0 0 1-.546-.703 6.343 6.343 0 0 0-.469-.782 4.382 4.382 0 0 0-.547-.468 2.862 2.862 0 0 1-.469-.508 38.526 38.526 0 0 0-2.5-3.282 6.467 6.467 0 0 0-.664-.78 6.552 6.552 0 0 1-.664-.782 9.332 9.332 0 0 1-.586-.82 25.557 25.557 0 0 0-.547-.899 33.125 33.125 0 0 0-.625-.898c-.26-.39-.547-.768-.859-1.133a20.4 20.4 0 0 0-.938-1.094 10.644 10.644 0 0 0-.781-.781.526.526 0 0 0-.195-.352 1.792 1.792 0 0 0-.352-.273 4.648 4.648 0 0 0-.156-.352.754.754 0 0 1-.117-.39c0-.183.039-.352.117-.508.052-.104.091-.195.117-.273 0-.105.026-.209.078-.313.131-.287.3-.56.508-.82a3.59 3.59 0 0 0 .547-.899.42.42 0 0 0 .078-.234c0-.104.026-.195.078-.274a.94.94 0 0 1 .313-.507 1.94 1.94 0 0 0 .429-.508c.131-.208.248-.417.352-.625.13-.235.26-.482.391-.742a32.63 32.63 0 0 1 1.211-1.875l1.328-1.875c.338-.521.664-1.016.976-1.485l1.016-1.484c.182-.234.378-.508.586-.82.208-.313.43-.625.664-.938.26-.312.521-.599.781-.86.261-.26.521-.468.781-.624.391-.026.651.065.782.273.13.182.325.274.586.274.338.078.56.182.664.312.104.13.221.26.351.39.365 0 .651.066.86.196.234.13.455.326.664.586a2.663 2.663 0 0 1-.352.781c-.156.209-.299.43-.43.664a1.075 1.075 0 0 0-.468.43.893.893 0 0 1-.391.43c-.26.442-.534.872-.82 1.289l-.86 1.172a4.08 4.08 0 0 1-.507.625 4.743 4.743 0 0 0-.586.859.955.955 0 0 1-.118.234c-.312.495-.651.964-1.015 1.407a9.738 9.738 0 0 0-1.016 1.406 4.033 4.033 0 0 0-.273.586c-.052.182-.13.364-.235.547-.104.156-.26.364-.468.625-.183.26-.365.546-.547.859-.183.287-.352.573-.508.86-.13.26-.195.481-.195.663.026.13.182.391.468.782a80.2 80.2 0 0 1 1.016 1.21c.391.417.755.82 1.094 1.212.338.364.56.585.664.664Zm2.578-7.11c.182.39.378.73.586 1.016.078.104.169.195.273.273a.713.713 0 0 1 .235.313c.052.052.104.17.156.351.052.157.104.274.156.352.078.208.235.443.469.703.234.26.351.495.351.703 0 .13-.026.274-.078.43-.052.156-.091.3-.117.43a3.098 3.098 0 0 0-.039.507c0 .157-.052.3-.156.43a.787.787 0 0 1-.43.234.928.928 0 0 0-.43.196c-.052.052-.13.143-.234.273-.104.13-.208.274-.312.43l-.313.469c-.078.13-.117.234-.117.312a9.42 9.42 0 0 1-.625.04.483.483 0 0 0-.273 0 1.667 1.667 0 0 0-.43-.313c-.13-.104-.3-.196-.508-.274-.052-.208-.169-.442-.352-.703-.182-.286-.338-.52-.468-.703l-.274-.352a101.38 101.38 0 0 1-1.094-1.562 6.317 6.317 0 0 1-.703-1.719c.495-.364.873-.638 1.133-.82.287-.182.586-.352.899-.508.312-.156.612-.3.898-.43.313-.156.599-.338.859-.546.209 0 .352.012.43.039.078.026.13.052.156.078a.424.424 0 0 1 .078.156c.053.052.144.117.274.195ZM236.094 2.21a.909.909 0 0 0 .156.235c.078.026.13.104.156.235.183.13.326.234.43.312.104.052.169.156.195.313.235.182.365.3.391.351a.49.49 0 0 1 .117.196c.13.104.247.195.352.273.13.078.221.195.273.352.208.182.339.325.391.43.052.103.091.22.117.35-.104.183-.313.43-.625.743-.313.313-.664.651-1.055 1.016-.39.338-.768.677-1.133 1.015-.364.313-.651.56-.859.742a1.043 1.043 0 0 1-.195.274c-.078.078-.144.17-.196.273-.156.13-.299.274-.429.43-.131.13-.287.234-.469.313-.26.364-.625.729-1.094 1.093-.469.339-.781.677-.937 1.016a.615.615 0 0 0 .156.234c.104.078.182.143.234.196.209.208.456.403.742.585.287.157.534.339.743.547l.625.547c.208.156.416.326.625.508.104.104.234.26.39.469.261.208.508.404.743.586.26.156.507.338.742.547.494.416.976.846 1.445 1.289.469.416.964.833 1.484 1.25l.313.351c0 .209.052.456.156.742.13.26.248.482.352.665-.052.26-.052.43 0 .507.078.052.143.104.195.157-.026.494-.013.82.039.976-.443.39-.859.755-1.25 1.094-.365.312-.69.625-.976.937a7.095 7.095 0 0 1-.743.782c-.234.208-.494.442-.781.703-.156.208-.286.351-.391.43a2.623 2.623 0 0 1-.546.43c-.313.286-.625.559-.938.82l-.859.78c-.209.183-.404.365-.586.548a5.31 5.31 0 0 0-.547.546l-.547.547a2.647 2.647 0 0 1-.586.508c-.078.156-.182.3-.312.43a2.209 2.209 0 0 0-.352.351 8.646 8.646 0 0 0-.508.313 5.038 5.038 0 0 1-.547.312 8.69 8.69 0 0 0-.625-.43 1.689 1.689 0 0 0-.625-.273 1.587 1.587 0 0 1-.351-.39c-.078-.13-.222-.222-.43-.274a1.552 1.552 0 0 0-.195-.234 45.624 45.624 0 0 0-.157-.313c-.312-.026-.559-.221-.742-.586a.89.89 0 0 1 .196-.351c.104-.078.13-.221.078-.43a2.74 2.74 0 0 1 .547-.664c.234-.208.455-.417.664-.625.234-.208.442-.417.625-.625.208-.234.429-.456.664-.664.13-.13.26-.247.39-.352.131-.13.274-.26.43-.39.287-.287.573-.547.859-.781.313-.26.625-.534.938-.82.417-.417.846-.808 1.289-1.173.443-.39.846-.82 1.211-1.289-.026-.104-.065-.169-.117-.195a.49.49 0 0 1-.117-.195c-.417-.39-.834-.768-1.25-1.133a6.956 6.956 0 0 0-1.289-1.016 1.657 1.657 0 0 1-.313-.39 13.692 13.692 0 0 1-1.367-1.133 6.236 6.236 0 0 0-1.406-1.055 1.166 1.166 0 0 0-.391-.312 3.47 3.47 0 0 0-.391-.274 1.074 1.074 0 0 0-.273-.312.707.707 0 0 0-.313-.235 3.235 3.235 0 0 1-.429-.43c-.052-.13-.157-.208-.313-.234a.634.634 0 0 0-.273-.312c-.104-.078-.222-.17-.352-.274a.981.981 0 0 0-.234-.39c-.026-.209-.013-.352.039-.43l.117-.234a.526.526 0 0 0-.195-.352c-.13-.078-.196-.208-.196-.39 0-.105.04-.17.118-.196a.49.49 0 0 0 .117-.195l.117-.586c.208-.156.378-.339.508-.547a1.67 1.67 0 0 1 .586-.547c.26-.39.586-.716.976-.976.131-.209.287-.378.469-.508.208-.13.378-.3.508-.508.208-.13.377-.274.508-.43.156-.156.338-.3.547-.43a.909.909 0 0 1 .156-.234.615.615 0 0 0 .156-.234c.703-.677 1.315-1.263 1.836-1.758.547-.495 1.107-.99 1.68-1.484.156-.13.312-.274.468-.43.157-.156.326-.3.508-.43a.265.265 0 0 1 .196-.078.419.419 0 0 0 .234-.078c.312 0 .482-.013.508-.04Z" fill="#fff"/></svg>