<svg width="32" height="32" viewBox="0 0 32 32" fill="none" xmlns="http://www.w3.org/2000/svg">
<path d="M18 11C18 11.2652 17.8946 11.5196 17.7071 11.7071C17.5196 11.8946 17.2652 12 17 12C15.6739 12 14.4021 12.5268 13.4645 13.4645C12.5268 14.4021 12 15.6739 12 17C12 17.2652 11.8946 17.5196 11.7071 17.7071C11.5196 17.8946 11.2652 18 11 18C10.7348 18 10.4804 17.8946 10.2929 17.7071C10.1054 17.5196 10 17.2652 10 17C10 15.6739 9.47322 14.4021 8.53553 13.4645C7.59785 12.5268 6.32608 12 5 12C4.73478 12 4.48043 11.8946 4.29289 11.7071C4.10536 11.5196 4 11.2652 4 11C4 10.7348 4.10536 10.4804 4.29289 10.2929C4.48043 10.1054 4.73478 10 5 10C6.32608 10 7.59785 9.47322 8.53553 8.53553C9.47322 7.59785 10 6.32608 10 5C10 4.73478 10.1054 4.48043 10.2929 4.29289C10.4804 4.10536 10.7348 4 11 4C11.2652 4 11.5196 4.10536 11.7071 4.29289C11.8946 4.48043 12 4.73478 12 5C12 6.32608 12.5268 7.59785 13.4645 8.53553C14.4021 9.47322 15.6739 10 17 10C17.2652 10 17.5196 10.1054 17.7071 10.2929C17.8946 10.4804 18 10.7348 18 11Z" fill="url(#paint0_linear_106_44)"/>
<path d="M19 24C19 24.2652 18.8946 24.5196 18.7071 24.7071C18.5196 24.8946 18.2652 25 18 25C17.4696 25 16.9609 25.2107 16.5858 25.5858C16.2107 25.9609 16 26.4696 16 27C16 27.2652 15.8946 27.5196 15.7071 27.7071C15.5196 27.8946 15.2652 28 15 28C14.7348 28 14.4804 27.8946 14.2929 27.7071C14.1054 27.5196 14 27.2652 14 27C14 26.4696 13.7893 25.9609 13.4142 25.5858C13.0391 25.2107 12.5304 25 12 25C11.7348 25 11.4804 24.8946 11.2929 24.7071C11.1054 24.5196 11 24.2652 11 24C11 23.7348 11.1054 23.4804 11.2929 23.2929C11.4804 23.1054 11.7348 23 12 23C12.5304 23 13.0391 22.7893 13.4142 22.4142C13.7893 22.0391 14 21.5304 14 21C14 20.7348 14.1054 20.4804 14.2929 20.2929C14.4804 20.1054 14.7348 20 15 20C15.2652 20 15.5196 20.1054 15.7071 20.2929C15.8946 20.4804 16 20.7348 16 21C16 21.5304 16.2107 22.0391 16.5858 22.4142C16.9609 22.7893 17.4696 23 18 23C18.2652 23 18.5196 23.1054 18.7071 23.2929C18.8946 23.4804 19 23.7348 19 24Z" fill="url(#paint1_linear_106_44)"/>
<path d="M28 17C28 17.2652 27.8946 17.5196 27.7071 17.7071C27.5196 17.8946 27.2652 18 27 18C25.9391 18 24.9217 18.4214 24.1716 19.1716C23.4214 19.9217 23 20.9391 23 22C23 22.2652 22.8946 22.5196 22.7071 22.7071C22.5196 22.8946 22.2652 23 22 23C21.7348 23 21.4804 22.8946 21.2929 22.7071C21.1054 22.5196 21 22.2652 21 22C21 20.9391 20.5786 19.9217 19.8284 19.1716C19.0783 18.4214 18.0609 18 17 18C16.7348 18 16.4804 17.8946 16.2929 17.7071C16.1054 17.5196 16 17.2652 16 17C16 16.7348 16.1054 16.4804 16.2929 16.2929C16.4804 16.1054 16.7348 16 17 16C18.0609 16 19.0783 15.5786 19.8284 14.8284C20.5786 14.0783 21 13.0609 21 12C21 11.7348 21.1054 11.4804 21.2929 11.2929C21.4804 11.1054 21.7348 11 22 11C22.2652 11 22.5196 11.1054 22.7071 11.2929C22.8946 11.4804 23 11.7348 23 12C23 13.0609 23.4214 14.0783 24.1716 14.8284C24.9217 15.5786 25.9391 16 27 16C27.2652 16 27.5196 16.1054 27.7071 16.2929C27.8946 16.4804 28 16.7348 28 17Z" fill="url(#paint2_linear_106_44)"/>
<defs>
<linearGradient id="paint0_linear_106_44" x1="11" y1="4" x2="11" y2="18" gradientUnits="userSpaceOnUse">
<stop stop-color="#168EE0"/>
<stop offset="1" stop-color="#005F9F"/>
</linearGradient>
<linearGradient id="paint1_linear_106_44" x1="15" y1="20" x2="15" y2="28" gradientUnits="userSpaceOnUse">
<stop stop-color="#168EE0"/>
<stop offset="1" stop-color="#005F9F"/>
</linearGradient>
<linearGradient id="paint2_linear_106_44" x1="22" y1="11" x2="22" y2="23" gradientUnits="userSpaceOnUse">
<stop stop-color="#168EE0"/>
<stop offset="1" stop-color="#005F9F"/>
</linearGradient>
</defs>
</svg>
