<svg width="32" height="32" fill="none" xmlns="http://www.w3.org/2000/svg"><path d="M18 11a1 1 0 0 1-1 1 5 5 0 0 0-5 5 1 1 0 0 1-2 0 5 5 0 0 0-5-5 1 1 0 0 1 0-2 5 5 0 0 0 5-5 1 1 0 0 1 2 0 5 5 0 0 0 5 5 1 1 0 0 1 1 1Z" fill="url(#a)"/><path d="M19 24a1 1 0 0 1-1 1 2 2 0 0 0-2 2 1 1 0 0 1-2 0 2 2 0 0 0-2-2 1 1 0 0 1 0-2 2 2 0 0 0 2-2 1 1 0 0 1 2 0 2 2 0 0 0 2 2 1 1 0 0 1 1 1Z" fill="url(#b)"/><path d="M28 17a1 1 0 0 1-1 1 4 4 0 0 0-4 4 1 1 0 0 1-2 0 4 4 0 0 0-4-4 1 1 0 0 1 0-2 4 4 0 0 0 4-4 1 1 0 0 1 2 0 4 4 0 0 0 4 4 1 1 0 0 1 1 1Z" fill="url(#c)"/><defs><linearGradient id="a" x1="11" y1="4" x2="11" y2="18" gradientUnits="userSpaceOnUse"><stop stop-color="#168EE0"/><stop offset="1" stop-color="#005F9F"/></linearGradient><linearGradient id="b" x1="15" y1="20" x2="15" y2="28" gradientUnits="userSpaceOnUse"><stop stop-color="#168EE0"/><stop offset="1" stop-color="#005F9F"/></linearGradient><linearGradient id="c" x1="22" y1="11" x2="22" y2="23" gradientUnits="userSpaceOnUse"><stop stop-color="#168EE0"/><stop offset="1" stop-color="#005F9F"/></linearGradient></defs></svg>