<svg width="18" height="14" viewBox="0 0 18 14" fill="none" xmlns="http://www.w3.org/2000/svg">
<path d="M12.1266 1.0188L16.8281 5.94067C17.1094 6.21255 17.25 6.58286 17.25 6.99067C17.25 7.39849 17.1094 7.76411 16.8281 8.04067L12.1266 12.9813C11.5688 13.5672 10.6594 13.5672 10.1016 12.9813C9.54375 12.3954 9.54375 11.4485 10.1016 10.8625L12.3609 8.50005H2.18906C1.39219 8.50005 0.75 7.82974 0.75 7.00005C0.75 6.17036 1.39219 5.50005 2.18437 5.50005H12.3563L10.0969 3.13755C9.53906 2.55161 9.53906 1.60474 10.0969 1.0188C10.6594 0.432861 11.5641 0.432861 12.1266 1.0188Z" fill="#00063B"/>
</svg>
