<svg width="32" height="32" viewBox="0 0 32 32" fill="none" xmlns="http://www.w3.org/2000/svg">
<g clip-path="url(#clip0_82_95)">
<path d="M29.1151 26.5106C27.2491 23.2963 24.2624 20.8838 20.7276 19.7356C22.4219 18.7281 23.7386 17.1921 24.4754 15.3637C25.2121 13.5352 25.3282 11.5155 24.8057 9.6147C24.2833 7.71391 23.1512 6.03722 21.5834 4.84222C20.0156 3.64721 18.0988 3 16.1276 3C14.1563 3 12.2395 3.64721 10.6717 4.84222C9.10394 6.03722 7.97186 7.71391 7.44941 9.6147C6.92695 11.5155 7.04301 13.5352 7.77977 15.3637C8.51652 17.1921 9.83321 18.7281 11.5276 19.7356C7.99268 20.8838 5.00598 23.2963 3.14006 26.5106C3.04845 26.6613 3 26.8343 3 27.0106C3 27.187 3.04845 27.3599 3.14006 27.5106C3.22553 27.6639 3.35077 27.7912 3.50257 27.8792C3.65437 27.9672 3.82711 28.0126 4.00256 28.0106H28.2526C28.428 28.0126 28.6007 27.9672 28.7525 27.8792C28.9043 27.7912 29.0296 27.6639 29.1151 27.5106C29.2067 27.3599 29.2551 27.187 29.2551 27.0106C29.2551 26.8343 29.2067 26.6613 29.1151 26.5106Z" fill="#141414"/>
</g>
<defs>
<clipPath id="clip0_82_95">
<rect width="32" height="32" fill="white"/>
</clipPath>
</defs>
</svg>
